<?xml version="1.0" standalone="no"?>
<!DOCTYPE svg PUBLIC "-//W3C//DTD SVG 20010904//EN"
 "http://www.w3.org/TR/2001/REC-SVG-20010904/DTD/svg10.dtd">
<svg version="1.0" xmlns="http://www.w3.org/2000/svg"
 width="157.000000pt" height="157.000000pt" viewBox="0 0 157.000000 157.000000"
 preserveAspectRatio="xMidYMid meet">
<metadata>
Created by potrace 1.14, written by Peter Selinger 2001-2017
</metadata>
<g transform="translate(0.000000,157.000000) scale(0.100000,-0.100000)"
fill="#000000" stroke="none">
<path d="M0 785 l0 -785 785 0 785 0 0 785 0 785 -785 0 -785 0 0 -785z m620
603 c0 -42 27 -96 60 -120 14 -10 49 -21 77 -25 59 -6 62 -23 5 -23 -82 0
-142 -61 -142 -142 0 -21 -4 -38 -10 -38 -5 0 -10 17 -10 38 0 81 -60 142
-142 142 -55 0 -55 16 0 23 26 3 60 11 76 18 34 16 66 76 66 124 0 19 5 35 10
35 6 0 10 -15 10 -32z m440 0 c0 -42 27 -96 60 -120 14 -10 49 -21 77 -25 59
-6 62 -23 5 -23 -82 0 -142 -61 -142 -142 0 -21 -4 -38 -10 -38 -5 0 -10 17
-10 38 0 81 -60 142 -142 142 -55 0 -55 16 0 23 26 3 60 11 76 18 34 16 66 76
66 124 0 19 5 35 10 35 6 0 10 -15 10 -32z m-370 -683 c0 -373 4 -405 52 -424
13 -5 34 -13 48 -18 17 -7 -39 -10 -185 -10 -143 0 -202 3 -185 10 14 5 35 13
48 18 48 19 53 58 50 351 l-3 270 -28 24 c-15 13 -39 24 -52 24 -13 0 -26 4
-29 8 -3 5 32 13 77 19 96 13 168 36 182 58 5 8 13 15 17 15 5 0 8 -155 8
-345z m440 0 c0 -373 4 -405 52 -424 13 -5 34 -13 48 -18 17 -7 -39 -10 -185
-10 -143 0 -202 3 -185 10 14 5 35 13 48 18 48 19 53 58 50 351 l-3 270 -28
24 c-15 13 -39 24 -52 24 -13 0 -26 4 -29 8 -3 5 32 13 77 19 96 13 168 36
182 58 5 8 13 15 17 15 5 0 8 -155 8 -345z"/>
</g>
</svg>
